:SAMPLES-PER-SECOND 30
:FULLY-SPECIFIED
:DEGREES
508
root  2.35951 37.5247 0.923252 48.6841 -85.2668 -53.2934
RightUpLeg  -21.7817 -1.86437 7.13082
RightLeg  28.0009 -1.20598 -0.944607
RightFoot  -1.97466 0.444165 -5.57508
RightToes  -1.74624e-010 0 -3.6325e-017
Spine  3.19064 -1.36084 12.4591
Spine1  7.83666 0.0947645 -0.145135
HEad  -15.2593 -3.39905 -1.55167
LeftShoulder1  -0.560837 4.89313 -34.199
LeftArm  8.50809 0.776866 -46.5409
LeftForeArm  29.5554 -13.2529 -9.02134
LeftHand  -0.0151413 5.94541 2.71956
RightShoulder  -1.14502 -6.4855 31.8512
RightArm  14.0061 0.27632 44.3077
RightForeArm  19.6774 5.95281 7.29361
RightHand  -0.0944861 3.42469 -1.48365
LeftUpLeg  2.50319 3.70892 5.38066
LeftLeg  55.5247 -6.67264 -9.86758
LeftFoot  9.21697 2.00556 -11.422
LeftToes  -3.96543e-010 8.93632e-011 -2.58531e-011
509
root  1.04852 37.7908 0.841702 44.9331 -84.693 -50.0454
RightUpLeg  -18.7078 -2.40877 7.51145
RightLeg  27.6946 -1.41639 -1.05776
RightFoot  -4.20185 0.324234 -5.64299
RightToes  -1.74624e-010 0 -3.6325e-017
Spine  3.30576 -1.04694 13.6018
Spine1  8.47309 0.717752 -0.595956
HEad  -15.8162 -4.95075 -0.942267
LeftShoulder1  -0.569953 4.90127 -34.6066
LeftArm  0.262778 2.75551 -45.3435
LeftForeArm  38.3991 -8.70637 -9.77107
LeftHand  -0.0279645 6.308 1.37307
RightShoulder  -1.07428 -6.33366 31.4079
RightArm  14.0384 2.49467 45.7672
RightForeArm  18.1432 7.3595 7.3262
RightHand  -0.0984107 4.10061 -1.47612
LeftUpLeg  -2.24321 1.58637 5.63188
LeftLeg  61.8403 -4.3437 -8.19308
LeftFoot  7.69463 1.58524 -9.68571
LeftToes  -3.96543e-010 8.93632e-011 -2.58531e-011
510
root  -0.308408 38.1995 0.765535 41.6709 -85.7967 -47.2873
RightUpLeg  -14.9089 -2.65672 6.66788
RightLeg  26.1684 -0.806741 -0.680045
RightFoot  -5.86063 0.234935 -5.73064
RightToes  -1.74624e-010 0 -3.6325e-017
Spine  3.78169 -0.358944 13.8565
Spine1  8.26976 1.8327 -2.19027
HEad  -15.6704 -5.97606 -0.804822
LeftShoulder1  -0.509068 4.76304 -34.2678
LeftArm  -4.21001 5.88145 -44.2842
LeftForeArm  41.6795 -6.13676 -8.98827
LeftHand  -0.0553822 7.75681 -0.79158
RightShoulder  -1.08611 -6.36455 31.4112
RightArm  16.3512 5.38556 46.8702
RightForeArm  17.2354 9.11839 7.72493
RightHand  -0.100953 3.98076 -1.51819
LeftUpLeg  -6.37028 0.799892 4.72557
LeftLeg  64.69 -2.63659 -5.46021
LeftFoot  6.00478 0.98735 -6.73279
LeftToes  -3.96543e-010 8.93632e-011 -2.58531e-011
511
root  -1.57191 38.4972 0.705375 41.6472 -86.7281 -47.1566
RightUpLeg  -12.0911 -3.39885 6.04022
RightLeg  24.824 0.410383 -0.108226
RightFoot  -7.35791 0.154498 -5.85484
RightToes  -1.74624e-010 0 -3.6325e-017
Spine  3.90356 0.191121 14.4966
Spine1  7.8573 2.74271 -3.80364
HEad  -15.6738 -6.0493 -1.08761
LeftShoulder1  -0.50968 4.76646 -34.2032
LeftArm  -5.7108 9.23689 -42.4898
LeftForeArm  39.5214 -5.02767 -8.15512
LeftHand  -0.048374 8.44486 -0.0738257
RightShoulder  -1.05278 -6.3093 30.9748
RightArm  20.0844 7.91972 48.2847
RightForeArm  14.4262 11.6968 7.78244
RightHand  -0.165733 4.3026 -2.25918
LeftUpLeg  -11.1284 0.234432 4.14195
LeftLeg  65.3777 -1.74747 -3.53434
LeftFoot  5.18095 0.533379 -3.87567
LeftToes  -3.96543e-010 8.93632e-011 -2.58531e-011
512
root  -2.8677 38.7906 0.634881 45.3248 -88.1933 -50.9042
RightUpLeg  -8.86625 -4.00197 5.08277
RightLeg  23.1377 2.24787 0.551771
RightFoot  -8.71519 0.0765891 -5.90367
RightToes  -1.74624e-010 0 -3.6325e-017
Spine  3.9377 0.880877 14.4778
Spine1  7.73386 3.63289 -5.09282
HEad  -15.4961 -6.25837 -1.62415
LeftShoulder1  -0.494634 4.7318 -34.1201
LeftArm  -6.30102 12.6338 -40.4976
LeftForeArm  37.644 -5.09352 -7.63249
LeftHand  -0.0537195 8.06193 -0.386669
RightShoulder  -1.01315 -6.24792 30.3457
RightArm  23.6049 10.176 49.7988
RightForeArm  11.8609 14.6557 7.01086
RightHand  -0.202485 5.3423 -2.50893
LeftUpLeg  -14.6413 -0.265096 3.19577
LeftLeg  62.8422 -1.55202 -2.68776
LeftFoot  2.93211 0.273659 -2.33706
LeftToes  -3.96543e-010 8.93632e-011 -2.58531e-011
513
root  -4.15492 39.0473 0.537892 29.4475 -89.5271 -35.3333
RightUpLeg  -5.25627 -5.25575 3.85491
RightLeg  21.1246 4.1269 1.15443
RightFoot  -9.99587 0.00529609 -6.2341
RightToes  -1.74624e-010 0 -3.6325e-017
Spine  4.20951 1.29988 13.8356
Spine1  7.49443 4.12094 -6.09978
HEad  -15.1914 -5.82882 -2.12411
LeftShoulder1  -0.514301 4.78179 -34.0801
LeftArm  -6.01749 15.9098 -38.3535
LeftForeArm  36.4416 -5.96724 -7.65524
LeftHand  -0.0581089 8.64043 -0.375379
RightShoulder  -0.92282 -6.0547 29.5993
RightArm  27.2911 11.8226 50.9553
RightForeArm  7.92308 18.4282 5.64278
RightHand  -0.186411 5.89691 -2.23967
LeftUpLeg  -17.0514 -1.0084 2.2646
LeftLeg  57.5365 -2.02466 -2.88873
LeftFoot  0.876013 0.167157 -1.61824
LeftToes  -3.96543e-010 8.93632e-011 -2.58531e-011
